{"title":"Colored Girls 2010 CAM V2 XViD-LKRG","uid":5957706,"size":734909498,"categoryP":"video","categoryS":"movies","magnet":"?xt=urn:btih:666e5cd0db2dcdc213203bce30a83634ac31a262&amp;dn=Colored+Girls+2010+CAM+V2+XViD-LKRG&amp;tr=udp%3A%2F%2Ftracker.openbittorrent.com%3A80&amp;tr=udp%3A%2F%2Fopen.demonii.com%3A1337&amp;tr=udp%3A%2F%2Ftracker.coppersurfer.tk%3A6969&amp;tr=udp%3A%2F%2Fexodus.desync.com%3A6969","seeders":0,"leechers":0,"uploader":".BONE.","files":54,"time":1289800684,"description":"Plot\nGenre : Drama\n\nPlot : The movie is based on Ntozake Shange's play &quot;For Colored Girls Who Have Considered Suicide When the Rainbow Is Enuf.&quot; Unlike the original play which featured only 7 women known by colors performing the collection of 20 poems, the movie has given each of the 20 characters names. Each of the poems deal with intense issues that particularly impact women in a thought-provoking commentary on what it means to be a female of color in the world.\n\nInfomation\nVideo\nID : 0\nFormat : MPEG-4 Visual\nFormat profile : Simple@L3\nFormat settings, BVOP : No\nFormat settings, QPel : No\nFormat settings, GMC : No warppoints\nFormat settings, Matrix : Default (H.263)\nCodec ID : XVID\nCodec ID/Hint : XviD\nDuration : 2h 7mn\nBit rate : 840 Kbps\nWidth : 696 pixels\nHeight : 388 pixels\nDisplay aspect ratio : 16:9\nFrame rate : 23.976 fps\nColor space : YUV\nChroma subsampling : 4:2:0\nBit depth : 8 bits\nScan type : Progressive\nBits/(Pixel*Frame) : 0.099\nStream size : 582 MiB (83%)\nWriting library : XviD 1.2.1 (UTC 2008-12-04)\n\nAudio\nID : 1\nFormat : MPEG Audio\nFormat version : Version 1\nFormat profile : Layer 3\nMode : Joint stereo\nMode extension : MS Stereo\nCodec ID : 55\nCodec ID/Hint : MP3\nDuration : 2h 7mn\nBit rate mode : Constant\nBit rate : 128 Kbps\nChannel(s) : 2 channels\nSampling rate : 48.0 KHz\nStream size : 116 MiB (17%)\nAlignment : Split accross interleaves\nInterleave, duration : 500 ms (11.99 video frames)\nInterleave, preload duration : 500 ms\n\nnotes:\nOur previous release was missing the ending this one fixes that\nenjoy\n &lt;a href=&quot;\nhttp://www.imdb.com/title/tt1405500/&quot; rel=&quot;nofollow&quot; target=&quot;_NEW&quot;&gt;\nhttp://www.imdb.com/title/tt1405500/&lt;/a&gt;\n\n &lt;a href=&quot;\nhttp://www.youtube.com/watch?v=sDWU_cFU9ZA&quot; rel=&quot;nofollow&quot; target=&quot;_NEW&quot;&gt;\nhttp://www.youtube.com/watch?v=sDWU_cFU9ZA&lt;/a&gt;","torrent":{"xt":"urn:btih:666e5cd0db2dcdc213203bce30a83634ac31a262","amp;dn":"Colored+Girls+2010+CAM+V2+XViD-LKRG","amp;tr":["udp%3A%2F%2Ftracker.openbittorrent.com%3A80","udp%3A%2F%2Fopen.demonii.com%3A1337","udp%3A%2F%2Ftracker.coppersurfer.tk%3A6969","udp%3A%2F%2Fexodus.desync.com%3A6969"],"infoHash":"666e5cd0db2dcdc213203bce30a83634ac31a262","infoHashBuffer":{"type":"Buffer","data":[102,110,92,208,219,45,205,194,19,32,59,206,48,168,54,52,172,49,162,98]},"announce":[],"urlList":[]}}